<svg xmlns="http://www.w3.org/2000/svg" version="1.1" xmlns:xlink="http://www.w3.org/1999/xlink" xmlns:svgjs="http://svgjs.dev/svgjs" width="2000" height="1999" viewBox="0 0 2000 1999"><g transform="matrix(1,0,0,1,-0.431486880466764,-0.4312711370263287)"><svg viewBox="0 0 343 343" data-background-color="#000000" preserveAspectRatio="xMidYMid meet" height="1999" width="2000" xmlns="http://www.w3.org/2000/svg" xmlns:xlink="http://www.w3.org/1999/xlink"><g id="tight-bounds" transform="matrix(1,0,0,1,0.0740000000000407,0.07400000000001228)"><svg viewBox="0 0 342.85155851775386 342.85155851775386" height="342.85155851775386" width="342.85155851775386"><rect width="342.852" height="342.852" fill="#000000" mask="url(#af60f9f4-bf9b-4062-8e50-75ad62ada366)" data-fill-palette-color="tertiary"></rect><g><svg></svg></g><g><svg viewBox="0 0 342.85155851775386 342.85155851775386" height="342.85155851775386" width="342.85155851775386"><g><path d="M0 171.426c0-94.676 76.75-171.426 171.426-171.426 94.676 0 171.426 76.75 171.426 171.426 0 94.676-76.75 171.426-171.426 171.426-94.676 0-171.426-76.75-171.426-171.426zM171.426 339.217c92.669 0 167.791-75.123 167.791-167.791 0-92.669-75.123-167.791-167.791-167.791-92.669 0-167.791 75.123-167.791 167.791 0 92.669 75.123 167.791 167.791 167.791z" data-fill-palette-color="tertiary" fill="#000000" stroke="transparent"></path><ellipse rx="164.56874808852186" ry="164.56874808852186" cx="171.42577925887693" cy="171.42577925887693" fill="#000000" stroke="transparent" stroke-width="0" fill-opacity="1" data-fill-palette-color="tertiary"></ellipse></g><g transform="matrix(1,0,0,1,64.84655864529837,118.66784443903785)"><svg viewBox="0 0 213.1584412271571 105.51586963967816" height="105.51586963967816" width="213.1584412271571"><g><svg viewBox="0 0 213.1584412271571 105.51586963967816" height="105.51586963967816" width="213.1584412271571"><g><svg viewBox="0 0 213.1584412271571 105.51586963967816" height="105.51586963967816" width="213.1584412271571"><g transform="matrix(1,0,0,1,0,65.21304052406877)"><svg viewBox="0 0 213.1584412271571 40.302829115609384" height="40.302829115609384" width="213.1584412271571"><g id="textblocktransform"><svg viewBox="0 0 213.1584412271571 40.302829115609384" height="40.302829115609384" width="213.1584412271571" id="textblock"><g><svg viewBox="0 0 213.1584412271571 40.302829115609384" height="40.302829115609384" width="213.1584412271571"><g transform="matrix(1,0,0,1,0,0)"><svg width="213.1584412271571" viewBox="2.95 -35.1 188.53 35.65" height="40.302829115609384" data-palette-color="#000000"><path d="M25-3.85L25.15-0.55Q20 0.5 15.9 0.5 11.8 0.5 9.28-0.63 6.75-1.75 5.38-4.13 4-6.5 3.48-9.58 2.95-12.65 2.95-17.25 2.95-21.85 3.48-24.98 4-28.1 5.38-30.5 6.75-32.9 9.25-34 11.75-35.1 15.75-35.1 19.75-35.1 25.15-34L25.15-34 25-30.75Q19.95-31.65 16-31.65L16-31.65Q10.5-31.65 8.72-28.38 6.95-25.1 6.95-17.2L6.95-17.2Q6.95-13.25 7.28-10.85 7.6-8.45 8.55-6.53 9.5-4.6 11.33-3.78 13.15-2.95 16.68-2.95 20.2-2.95 25-3.85L25-3.85ZM48.45-17.45L48.45-17.45 48.45-4.65Q48.6-2.8 51.35-2.45L51.35-2.45 51.2 0.5Q47.25 0.5 45.25-1.5L45.25-1.5Q40.75 0.5 36.25 0.5L36.25 0.5Q32.8 0.5 31-1.45 29.2-3.4 29.2-7.05 29.2-10.7 31.05-12.43 32.9-14.15 36.85-14.55L36.85-14.55 44.7-15.3 44.7-17.45Q44.7-20 43.6-21.1 42.5-22.2 40.6-22.2L40.6-22.2Q36.6-22.2 32.3-21.7L32.3-21.7 30.75-21.55 30.6-24.4Q36.1-25.5 40.35-25.5 44.6-25.5 46.52-23.55 48.45-21.6 48.45-17.45ZM33.05-7.25L33.05-7.25Q33.05-2.65 36.85-2.65L36.85-2.65Q40.25-2.65 43.55-3.8L43.55-3.8 44.7-4.2 44.7-12.45 37.3-11.75Q35.05-11.55 34.05-10.45 33.05-9.35 33.05-7.25ZM59.6-20.3L59.6 0 55.85 0 55.85-25 59.55-25 59.55-23.25Q63.3-25.5 66.84-25.5L66.84-25.5Q71.5-25.5 73.34-22.95L73.34-22.95Q75-23.95 77.62-24.73 80.25-25.5 82.25-25.5L82.25-25.5Q87.25-25.5 88.97-22.83 90.7-20.15 90.7-13.2L90.7-13.2 90.7 0 86.95 0 86.95-13.1Q86.95-18.3 85.95-20.23 84.95-22.15 81.7-22.15L81.7-22.15Q80.05-22.15 78.3-21.68 76.55-21.2 75.59-20.75L75.59-20.75 74.65-20.3Q75.3-18.65 75.3-13L75.3-13 75.3 0 71.55 0 71.55-12.9Q71.55-18.3 70.57-20.23 69.59-22.15 66.3-22.15L66.3-22.15Q64.7-22.15 63.02-21.68 61.35-21.2 60.45-20.75L60.45-20.75 59.6-20.3ZM130.04-3.85L130.19-0.55Q125.04 0.5 120.94 0.5 116.84 0.5 114.32-0.63 111.79-1.75 110.42-4.13 109.04-6.5 108.52-9.58 107.99-12.65 107.99-17.25 107.99-21.85 108.52-24.98 109.04-28.1 110.42-30.5 111.79-32.9 114.29-34 116.79-35.1 120.79-35.1 124.79-35.1 130.19-34L130.19-34 130.04-30.75Q124.99-31.65 121.04-31.65L121.04-31.65Q115.54-31.65 113.77-28.38 111.99-25.1 111.99-17.2L111.99-17.2Q111.99-13.25 112.32-10.85 112.64-8.45 113.59-6.53 114.54-4.6 116.37-3.78 118.19-2.95 121.72-2.95 125.24-2.95 130.04-3.85L130.04-3.85ZM153.49-17.45L153.49-17.45 153.49-4.65Q153.64-2.8 156.39-2.45L156.39-2.45 156.24 0.5Q152.29 0.5 150.29-1.5L150.29-1.5Q145.79 0.5 141.29 0.5L141.29 0.5Q137.84 0.5 136.04-1.45 134.24-3.4 134.24-7.05 134.24-10.7 136.09-12.43 137.94-14.15 141.89-14.55L141.89-14.55 149.74-15.3 149.74-17.45Q149.74-20 148.64-21.1 147.54-22.2 145.64-22.2L145.64-22.2Q141.64-22.2 137.34-21.7L137.34-21.7 135.79-21.55 135.64-24.4Q141.14-25.5 145.39-25.5 149.64-25.5 151.56-23.55 153.49-21.6 153.49-17.45ZM138.09-7.25L138.09-7.25Q138.09-2.65 141.89-2.65L141.89-2.65Q145.29-2.65 148.59-3.8L148.59-3.8 149.74-4.2 149.74-12.45 142.34-11.75Q140.09-11.55 139.09-10.45 138.09-9.35 138.09-7.25ZM164.64 0L160.89 0 160.89-25 164.59-25 164.59-21.6Q168.94-24.6 173.74-25.55L173.74-25.55 173.74-21.75Q171.64-21.35 169.36-20.5 167.09-19.65 165.89-19L165.89-19 164.64-18.35 164.64 0ZM191.13-25L191.13-21.75 183.18-21.75 183.18-9.8Q183.18-5.5 183.81-4.15 184.43-2.8 186.78-2.8L186.78-2.8 191.23-3.1 191.48 0Q188.13 0.55 186.38 0.55L186.38 0.55Q182.48 0.55 180.98-1.35 179.48-3.25 179.48-8.6L179.48-8.6 179.48-21.75 175.93-21.75 175.93-25 179.48-25 179.48-32.65 183.18-32.65 183.18-25 191.13-25Z" opacity="1" transform="matrix(1,0,0,1,0,0)" fill="#ffffff" class="wordmark-text-0" data-fill-palette-color="quaternary" id="text-0"></path></svg></g></svg></g></svg></g></svg></g><g transform="matrix(1,0,0,1,69.44724463029041,0)"><svg viewBox="0 0 74.26395196657629 55.69850983777217" height="55.69850983777217" width="74.26395196657629"><g><svg xmlns="http://www.w3.org/2000/svg" xmlns:xlink="http://www.w3.org/1999/xlink" version="1.1" x="0" y="0" viewBox="0 0 170.077 127.55900011814983" enable-background="new 0 0 170.078 127.56" xml:space="preserve" width="74.26395196657629" height="55.69850983777217" class="icon-icon-0" data-fill-palette-color="quaternary" id="icon-0"><path fill-rule="evenodd" clip-rule="evenodd" d="M14.173 14.173h8.504C28.346 14.173 28.346 0 34.016 0h5.67H39.7h0.042 0.07 0.051 0.046 0.123 0.062 0.086 0.141 0.032 0.192 0.004 0.216 0.003 0.214 0.027 0.185 0.077 0.133 0.15 0.055 0.202 0.045 0.152 0.169 0.023 0.188 0.128 0.056 0.179 0.122 0.053 0.169 0.151 0.014 0.159 0.154 0.063 0.086 0.144 0.137 0.038 0.093 0.125 0.12 0.081 0.032 0.107H44.7h0.093 0.087 0.012 0.068 0.073 0.066 0.058 0.051 0.044 0.036 0.028 0.021 0 0.012 0.004 19.843c5.669 0 5.669 14.173 11.338 14.173h53.858c0-3.13 2.539-5.669 5.669-5.669h5.67c3.13 0 5.669 2.539 5.669 5.669h8.504c7.826 0 14.173 6.347 14.173 14.173v85.039c0 7.827-6.347 14.174-14.173 14.174H14.173C6.347 127.56 0 121.213 0 113.386V28.347C0 20.52 6.347 14.173 14.173 14.173L14.173 14.173zM113.386 28.347c-23.479 0-42.52 19.041-42.52 42.52 0 23.479 19.04 42.52 42.52 42.52 23.479 0 42.52-19.04 42.52-42.52C155.905 47.387 136.864 28.347 113.386 28.347L113.386 28.347zM34.016 42.52h17.008c3.13 0 5.669-2.539 5.669-5.669v-2.834c0-3.131-2.539-5.669-5.669-5.669H34.016c-3.131 0-5.669 2.539-5.669 5.669v2.834C28.346 39.981 30.885 42.52 34.016 42.52z" fill="#ffffff" data-fill-palette-color="quaternary"></path><path fill-rule="evenodd" clip-rule="evenodd" d="M113.386 39.685c-17.218 0-31.181 13.963-31.181 31.181s13.963 31.182 31.181 31.182 31.181-13.964 31.181-31.182S130.604 39.685 113.386 39.685L113.386 39.685z" fill="#ffffff" data-fill-palette-color="quaternary"></path></svg></g></svg></g><g></g></svg></g></svg></g></svg></g></svg></g><defs></defs><mask id="af60f9f4-bf9b-4062-8e50-75ad62ada366"><g id="SvgjsG1179"><svg viewBox="0 0 342.85155851775386 342.85155851775386" height="342.85155851775386" width="342.85155851775386"><g><svg></svg></g><g><svg viewBox="0 0 342.85155851775386 342.85155851775386" height="342.85155851775386" width="342.85155851775386"><g><path d="M0 171.426c0-94.676 76.75-171.426 171.426-171.426 94.676 0 171.426 76.75 171.426 171.426 0 94.676-76.75 171.426-171.426 171.426-94.676 0-171.426-76.75-171.426-171.426zM171.426 339.217c92.669 0 167.791-75.123 167.791-167.791 0-92.669-75.123-167.791-167.791-167.791-92.669 0-167.791 75.123-167.791 167.791 0 92.669 75.123 167.791 167.791 167.791z" fill="white" stroke="transparent"></path><ellipse rx="164.56874808852186" ry="164.56874808852186" cx="171.42577925887693" cy="171.42577925887693" fill="white" stroke="transparent" stroke-width="0" fill-opacity="1"></ellipse></g><g transform="matrix(1,0,0,1,64.84655864529837,118.66784443903785)"><svg viewBox="0 0 213.1584412271571 105.51586963967816" height="105.51586963967816" width="213.1584412271571"><g><svg viewBox="0 0 213.1584412271571 105.51586963967816" height="105.51586963967816" width="213.1584412271571"><g><svg viewBox="0 0 213.1584412271571 105.51586963967816" height="105.51586963967816" width="213.1584412271571"><g transform="matrix(1,0,0,1,0,65.21304052406877)"><svg viewBox="0 0 213.1584412271571 40.302829115609384" height="40.302829115609384" width="213.1584412271571"><g id="SvgjsG1178"><svg viewBox="0 0 213.1584412271571 40.302829115609384" height="40.302829115609384" width="213.1584412271571" id="SvgjsSvg1177"><g><svg viewBox="0 0 213.1584412271571 40.302829115609384" height="40.302829115609384" width="213.1584412271571"><g transform="matrix(1,0,0,1,0,0)"><svg width="213.1584412271571" viewBox="2.95 -35.1 188.53 35.65" height="40.302829115609384" data-palette-color="#000000"><path d="M25-3.85L25.15-0.55Q20 0.5 15.9 0.5 11.8 0.5 9.28-0.63 6.75-1.75 5.38-4.13 4-6.5 3.48-9.58 2.95-12.65 2.95-17.25 2.95-21.85 3.48-24.98 4-28.1 5.38-30.5 6.75-32.9 9.25-34 11.75-35.1 15.75-35.1 19.75-35.1 25.15-34L25.15-34 25-30.75Q19.95-31.65 16-31.65L16-31.65Q10.5-31.65 8.72-28.38 6.95-25.1 6.95-17.2L6.95-17.2Q6.95-13.25 7.28-10.85 7.6-8.45 8.55-6.53 9.5-4.6 11.33-3.78 13.15-2.95 16.68-2.95 20.2-2.95 25-3.85L25-3.85ZM48.45-17.45L48.45-17.45 48.45-4.65Q48.6-2.8 51.35-2.45L51.35-2.45 51.2 0.5Q47.25 0.5 45.25-1.5L45.25-1.5Q40.75 0.5 36.25 0.5L36.25 0.5Q32.8 0.5 31-1.45 29.2-3.4 29.2-7.05 29.2-10.7 31.05-12.43 32.9-14.15 36.85-14.55L36.85-14.55 44.7-15.3 44.7-17.45Q44.7-20 43.6-21.1 42.5-22.2 40.6-22.2L40.6-22.2Q36.6-22.2 32.3-21.7L32.3-21.7 30.75-21.55 30.6-24.4Q36.1-25.5 40.35-25.5 44.6-25.5 46.52-23.55 48.45-21.6 48.45-17.45ZM33.05-7.25L33.05-7.25Q33.05-2.65 36.85-2.65L36.85-2.65Q40.25-2.65 43.55-3.8L43.55-3.8 44.7-4.2 44.7-12.45 37.3-11.75Q35.05-11.55 34.05-10.45 33.05-9.35 33.05-7.25ZM59.6-20.3L59.6 0 55.85 0 55.85-25 59.55-25 59.55-23.25Q63.3-25.5 66.84-25.5L66.84-25.5Q71.5-25.5 73.34-22.95L73.34-22.95Q75-23.95 77.62-24.73 80.25-25.5 82.25-25.5L82.25-25.5Q87.25-25.5 88.97-22.83 90.7-20.15 90.7-13.2L90.7-13.2 90.7 0 86.95 0 86.95-13.1Q86.95-18.3 85.95-20.23 84.95-22.15 81.7-22.15L81.7-22.15Q80.05-22.15 78.3-21.68 76.55-21.2 75.59-20.75L75.59-20.75 74.65-20.3Q75.3-18.65 75.3-13L75.3-13 75.3 0 71.55 0 71.55-12.9Q71.55-18.3 70.57-20.23 69.59-22.15 66.3-22.15L66.3-22.15Q64.7-22.15 63.02-21.68 61.35-21.2 60.45-20.75L60.45-20.75 59.6-20.3ZM130.04-3.85L130.19-0.55Q125.04 0.5 120.94 0.5 116.84 0.5 114.32-0.63 111.79-1.75 110.42-4.13 109.04-6.5 108.52-9.58 107.99-12.65 107.99-17.25 107.99-21.85 108.52-24.98 109.04-28.1 110.42-30.5 111.79-32.9 114.29-34 116.79-35.1 120.79-35.1 124.79-35.1 130.19-34L130.19-34 130.04-30.75Q124.99-31.65 121.04-31.65L121.04-31.65Q115.54-31.65 113.77-28.38 111.99-25.1 111.99-17.2L111.99-17.2Q111.99-13.25 112.32-10.85 112.64-8.45 113.59-6.53 114.54-4.6 116.37-3.78 118.19-2.95 121.72-2.95 125.24-2.95 130.04-3.85L130.04-3.85ZM153.49-17.45L153.49-17.45 153.49-4.65Q153.64-2.8 156.39-2.45L156.39-2.45 156.24 0.5Q152.29 0.5 150.29-1.5L150.29-1.5Q145.79 0.5 141.29 0.5L141.29 0.5Q137.84 0.5 136.04-1.45 134.24-3.4 134.24-7.05 134.24-10.7 136.09-12.43 137.94-14.15 141.89-14.55L141.89-14.55 149.74-15.3 149.74-17.45Q149.74-20 148.64-21.1 147.54-22.2 145.64-22.2L145.64-22.2Q141.64-22.2 137.34-21.7L137.34-21.7 135.79-21.55 135.64-24.4Q141.14-25.5 145.39-25.5 149.64-25.5 151.56-23.55 153.49-21.6 153.49-17.45ZM138.09-7.25L138.09-7.25Q138.09-2.65 141.89-2.65L141.89-2.65Q145.29-2.65 148.59-3.8L148.59-3.8 149.74-4.2 149.74-12.45 142.34-11.75Q140.09-11.55 139.09-10.45 138.09-9.35 138.09-7.25ZM164.64 0L160.89 0 160.89-25 164.59-25 164.59-21.6Q168.94-24.6 173.74-25.55L173.74-25.55 173.74-21.75Q171.64-21.35 169.36-20.5 167.09-19.65 165.89-19L165.89-19 164.64-18.35 164.64 0ZM191.13-25L191.13-21.75 183.18-21.75 183.18-9.8Q183.18-5.5 183.81-4.15 184.43-2.8 186.78-2.8L186.78-2.8 191.23-3.1 191.48 0Q188.13 0.55 186.38 0.55L186.38 0.55Q182.48 0.55 180.98-1.35 179.48-3.25 179.48-8.6L179.48-8.6 179.48-21.75 175.93-21.75 175.93-25 179.48-25 179.48-32.65 183.18-32.65 183.18-25 191.13-25Z" opacity="1" transform="matrix(1,0,0,1,0,0)" fill="black" class="wordmark-text-0" id="SvgjsPath1176"></path></svg></g></svg></g></svg></g></svg></g><g transform="matrix(1,0,0,1,69.44724463029041,0)"><svg viewBox="0 0 74.26395196657629 55.69850983777217" height="55.69850983777217" width="74.26395196657629"><g><svg xmlns="http://www.w3.org/2000/svg" xmlns:xlink="http://www.w3.org/1999/xlink" version="1.1" x="0" y="0" viewBox="0 0 170.077 127.55900011814983" enable-background="new 0 0 170.078 127.56" xml:space="preserve" width="74.26395196657629" height="55.69850983777217" class="icon-icon-0" data-fill-palette-color="quaternary" id="SvgjsSvg1175"><path fill-rule="evenodd" clip-rule="evenodd" d="M14.173 14.173h8.504C28.346 14.173 28.346 0 34.016 0h5.67H39.7h0.042 0.07 0.051 0.046 0.123 0.062 0.086 0.141 0.032 0.192 0.004 0.216 0.003 0.214 0.027 0.185 0.077 0.133 0.15 0.055 0.202 0.045 0.152 0.169 0.023 0.188 0.128 0.056 0.179 0.122 0.053 0.169 0.151 0.014 0.159 0.154 0.063 0.086 0.144 0.137 0.038 0.093 0.125 0.12 0.081 0.032 0.107H44.7h0.093 0.087 0.012 0.068 0.073 0.066 0.058 0.051 0.044 0.036 0.028 0.021 0 0.012 0.004 19.843c5.669 0 5.669 14.173 11.338 14.173h53.858c0-3.13 2.539-5.669 5.669-5.669h5.67c3.13 0 5.669 2.539 5.669 5.669h8.504c7.826 0 14.173 6.347 14.173 14.173v85.039c0 7.827-6.347 14.174-14.173 14.174H14.173C6.347 127.56 0 121.213 0 113.386V28.347C0 20.52 6.347 14.173 14.173 14.173L14.173 14.173zM113.386 28.347c-23.479 0-42.52 19.041-42.52 42.52 0 23.479 19.04 42.52 42.52 42.52 23.479 0 42.52-19.04 42.52-42.52C155.905 47.387 136.864 28.347 113.386 28.347L113.386 28.347zM34.016 42.52h17.008c3.13 0 5.669-2.539 5.669-5.669v-2.834c0-3.131-2.539-5.669-5.669-5.669H34.016c-3.131 0-5.669 2.539-5.669 5.669v2.834C28.346 39.981 30.885 42.52 34.016 42.52z" fill="black"></path><path fill-rule="evenodd" clip-rule="evenodd" d="M113.386 39.685c-17.218 0-31.181 13.963-31.181 31.181s13.963 31.182 31.181 31.182 31.181-13.964 31.181-31.182S130.604 39.685 113.386 39.685L113.386 39.685z" fill="black"></path></svg></g></svg></g><g></g></svg></g></svg></g></svg></g></svg></g><defs><mask></mask></defs></svg><rect width="342.85155851775386" height="342.85155851775386" fill="black" stroke="none" visibility="hidden"></rect></g></mask><linearGradient x1="0.054" x2="0.941" y1="0.5" y2="0.5" id="453dea68-1c3d-4481-a256-8dc000668f5d"><stop stop-color="#8c8c8c" offset="0"></stop><stop stop-color="#e3e4e5" offset="0.498"></stop><stop stop-color="#8c8c8c" offset="1"></stop></linearGradient></svg><rect width="342.85155851775386" height="342.85155851775386" fill="none" stroke="none" visibility="hidden"></rect></g></svg></g></svg>